<svg width="24" height="24" viewBox="0 0 24 24" fill="none" xmlns="http://www.w3.org/2000/svg">
    <path fill="white" fill-rule="evenodd" clip-rule="evenodd" d="M16.735 2.83503C16.3945 2.49437 15.9426 2.28799 15.4622 2.25382C14.9818 2.21965 14.5052 2.35998 14.12 2.64903L11.207 4.83403C9.99689 5.74181 8.5775 6.32992 7.07999 6.54403L4.90299 6.85403C4.17299 6.95903 3.63799 7.74503 3.98999 8.51603C4.32099 9.23903 5.37499 11.145 8.34999 14.236L4.17199 18.414C4.07648 18.5063 4.0003 18.6166 3.94789 18.7386C3.89548 18.8606 3.86789 18.9918 3.86674 19.1246C3.86558 19.2574 3.89088 19.3891 3.94117 19.512C3.99145 19.6349 4.0657 19.7465 4.15959 19.8404C4.25349 19.9343 4.36514 20.0086 4.48803 20.0588C4.61093 20.1091 4.74261 20.1344 4.87539 20.1333C5.00817 20.1321 5.13939 20.1045 5.26139 20.0521C5.3834 19.9997 5.49374 19.9235 5.58599 19.828L9.76399 15.65C12.855 18.625 14.761 19.679 15.484 20.01C16.254 20.362 17.041 19.827 17.145 19.097L17.456 16.92C17.6701 15.4225 18.2582 14.0031 19.166 12.793L21.35 9.88003C21.639 9.4948 21.7794 9.0182 21.7452 8.5378C21.711 8.0574 21.5046 7.60547 21.164 7.26503L16.735 2.83503ZM15.32 4.25003L19.75 8.68003L17.566 11.594C16.4565 13.073 15.7377 14.8078 15.476 16.638L15.333 17.639C14.353 17.015 12.73 15.802 10.464 13.536C8.19999 11.27 6.98599 9.64803 6.36199 8.66803L7.36199 8.52503C9.1926 8.26349 10.9277 7.54467 12.407 6.43503L15.32 4.25003Z"/>
</svg>